# xmcd
#
# Track frame offsets:
#	150
#	21517
#	45195
#	64645
#	79670
#
# Disc length: 1299
#
# Revision: 2
# Processed by: cddbd v1.5.1PL0 Copyright (c) Steve Scherf et al.
# Submitted via: CDex 1.50
# Normalized: r1:TRMNUM
#
DISCID=32051105
DTITLE=de'Briah - Out On The Sand
DYEAR=1900
DGENRE=New Age
TTITLE0=Into the Yard
TTITLE1=In Reference to Time
TTITLE2=Twice Born
TTITLE3=Good God
TTITLE4=Out on the Sand
EXTD=
EXTT0=
EXTT1=
EXTT2=
EXTT3=
EXTT4=
PLAYORDER=
